<svg xmlns="http://www.w3.org/2000/svg" viewBox="0 0 232.69 62.49" >
<g id="Layer_2" data-name="Layer 2">
<g id="Layer_1-2" data-name="Layer 1">
<path d="M232.69,61.32c-3.4.6-5.46-1.18-7.78-2.4Q173.46,31.71,122.06,4.39c-4.12-2.2-7.42-2.3-11.57-.06-24.33,13.13-48.78,26-73.2,39q-17,9-34.06,17.88c-1,.5-2,.81-3.23,1.3.05-2.68,2.05-2.89,3.36-3.58q54.74-29,109.5-58c2.57-1.37,4.49-1.13,6.92.18,17.87,9.66,35.82,19.19,53.74,28.75,4.67,2.49,5.7,1.87,5.87-3.52.39-11.91.39-11.91,12.4-11.91,6.5,0,13,.13,19.49,0,3.5-.09,4.67,1.29,4.62,4.71-.15,9.5,0,19-.09,28.5-.05,3.24,1.08,5.26,4,6.7C224.2,56.46,228.41,59,232.69,61.32Zm-19-27.82c0-4.33-.14-8.67,0-13,.13-3.05-1.23-4.25-4.08-4.25-5.17,0-10.33-.1-15.5,0-15.23.17-13-1.93-13.16,13.91a5.24,5.24,0,0,0,3.08,5.22Q196.93,42,209.72,48.79c2.66,1.41,4,1,4-2.29C213.61,42.17,213.68,37.83,213.68,33.5Z"/></g></g></svg> 